<svg xmlns="http://www.w3.org/2000/svg" viewBox="0 0 328.3 87.38">
  <defs>
    <style>
      .a {
        fill: #5c0d9f;
      }
    </style>
  </defs>
  <title>vmgame_logo2</title>
  <g>
    <path class="a" d="M30.91,19.05c-.11,1.13-.21,2.25-.33,3.38q-1.92,20.1-3.32,39.92-1-12.27-2.12-24.72Q23.49,19.38,21.65,1.46L0,.74l12.3,85H43L53.32,8Z"/>
    <path class="a" d="M115.46,4.4,89.42,8,84.77,44.29q-2.26-8.2-4.54-16.41c-.43-3.7-1-7.62-1.83-11.74-.56-2.85-1.18-5.58-1.84-8.17H53.32V85.75H71l0-51.31,7.43,51.31H91l7-52.51,0,52.51h17.68Q115.6,45.07,115.46,4.4Z"/>
    <path class="a" d="M165.24,30.42a23.81,23.81,0,0,0-2.62-11.76A23.06,23.06,0,0,0,155,10q-5.86-3.65-14.75-3.65-9,0-14.73,4.21t-6.9,9.24q-1.2,5-1.2,16.2V59.09a90.89,90.89,0,0,0,.58,12,19.25,19.25,0,0,0,2.89,7.66,18.14,18.14,0,0,0,6.76,6.13,19.28,19.28,0,0,0,9.54,2.47,14.67,14.67,0,0,0,7.42-1.8,14.07,14.07,0,0,0,5.22-5.4l1.87,5.57h12.71V44H140.71V55.82h4.08V65c0,3.62-.26,6.06-.79,7.3a3,3,0,0,1-3,1.88,2.6,2.6,0,0,1-2.68-1.66q-.67-1.65-.68-6.89V28.34q0-6,.68-7.4a2.53,2.53,0,0,1,2.54-1.44,2.56,2.56,0,0,1,2.74,1.68q.58,1.68.58,8.36c0,3.36-.07,6.72-.1,10.08Z"/>
    <path class="a" d="M203.41,8H174.17L163.85,85.78h20.91l1.22-14h7.23l1.09,14H215Zm-9,15.25a3.71,3.71,0,0,1,2.86-1.07c1.79.22,2.93,2,3.25,3.43.5,2.08-.35,5-2.44,5.58-1.7.49-3.46-.75-4.28-2.15A4.94,4.94,0,0,1,194.38,23.25ZM179,29.07a5.18,5.18,0,0,1,.58-5.81,3.37,3.37,0,0,1,2.71-1.08c1.71.22,2.79,2,3.1,3.45.47,2.08-.34,5-2.32,5.6C181.46,31.72,179.79,30.47,179,29.07Zm23.46,30.57c-1,2.52-3.8,4.36-7.16,4.77a14.71,14.71,0,0,1-6.6,0,15,15,0,0,1-4.77-2c-.42-.34-4.13-3.39-3.67-7.34.59-5.1,7.53-6.9,8.62-7.15a13,13,0,0,1,7.52.36c1,.35,4.59,1.69,5.93,4.91a8,8,0,0,1,.49,1.7A9.16,9.16,0,0,1,202.47,59.64Z"/>
    <path class="a" d="M252.91,18.3Q251.22,31.67,249.5,45l-2.88-19.78c-.36-2.93-.77-5.89-1.21-8.9Q244.17,7.91,242.65,0l-24.6,8.7V86.49h17.68l0-51.31,7.43,51.31h12.54l7-52.51,0,52.51h17.68V8.7Z"/>
    <path class="a" d="M323.53,70.47l-20.06-.26V53.11l23.73-.62L316.11,38.31H303.47V23.56l16-.42q4-7.15,8.07-14.3L283.25,8V85.78l45.05-.27Z"/>
  </g>
</svg>
